<svg width="538" height="538" viewBox="0 0 538 538" fill="none" xmlns="http://www.w3.org/2000/svg">
<rect x="6.23351" y="6.23351" width="525.533" height="525.533" stroke="white" stroke-width="12.467"/>
<mask id="path-2-outside-1_254_29" maskUnits="userSpaceOnUse" x="37.7866" y="129.981" width="465" height="300" fill="black">
<rect fill="white" x="37.7866" y="129.981" width="465" height="300"/>
<path d="M70.3715 190L51.8038 130.981H68.2992L81.3961 176.406H73.77L86.7011 130.981H100.378L113.309 176.406H105.766L118.863 130.981H135.193L116.625 190H102.865L89.9339 144.658H97.0626L84.1315 190H70.3715Z"/>
<path d="M140.785 190V130.981H157.363V190H140.785ZM154.213 190V176.24H185.878V190H154.213ZM154.213 166.625V153.196H182.811V166.625H154.213ZM154.213 144.741V130.981H185.38V144.741H154.213Z"/>
<path d="M208.62 190V130.981H225.198V190H208.62ZM222.131 190V175.908H249.734V190H222.131Z"/>
<path d="M256.056 190V130.981H272.634V190H256.056ZM269.484 190V176.24H301.149V190H269.484ZM269.484 166.625V153.196H298.082V166.625H269.484ZM269.484 144.741V130.981H300.651V144.741H269.484Z"/>
<path d="M304.603 190L327.067 130.981H343.976L366.191 190H348.95L332.454 139.851H338.423L321.513 190H304.603ZM319.192 180.053V167.122H352.183V180.053H319.192Z"/>
<path d="M381.69 190L360.055 130.981H377.628L393.626 178.644H385.834L402.081 130.981H419.405L397.439 190H381.69Z"/>
<path d="M424.915 190V130.981H441.493V190H424.915ZM438.343 190V176.24H470.008V190H438.343ZM438.343 166.625V153.196H466.941V166.625H438.343ZM438.343 144.741V130.981H469.51V144.741H438.343Z"/>
<path d="M56.4425 294V234.981H73.0208V294H56.4425ZM38.7866 249.073V234.981H90.7596V249.073H38.7866Z"/>
<path d="M123.822 295.16C119.18 295.16 114.897 294.387 110.973 292.84C107.105 291.292 103.707 289.137 100.778 286.374C97.9042 283.611 95.6661 280.351 94.0636 276.593C92.461 272.835 91.6597 268.773 91.6597 264.408C91.6597 259.987 92.4334 255.925 93.9807 252.223C95.5832 248.52 97.8213 245.287 100.695 242.524C103.568 239.761 106.939 237.634 110.808 236.142C114.731 234.594 119.014 233.821 123.656 233.821C128.298 233.821 132.553 234.594 136.421 236.142C140.345 237.634 143.743 239.761 146.617 242.524C149.49 245.287 151.701 248.548 153.248 252.306C154.851 256.008 155.652 260.07 155.652 264.491C155.652 268.856 154.851 272.918 153.248 276.676C151.701 280.378 149.49 283.639 146.617 286.457C143.743 289.22 140.372 291.375 136.504 292.922C132.636 294.414 128.408 295.16 123.822 295.16ZM123.656 280.572C126.75 280.572 129.431 279.908 131.696 278.582C133.962 277.256 135.703 275.377 136.919 272.946C138.134 270.514 138.742 267.668 138.742 264.408C138.742 261.976 138.383 259.793 137.665 257.859C137.001 255.87 136.007 254.184 134.68 252.803C133.354 251.366 131.752 250.289 129.873 249.57C128.049 248.796 125.977 248.41 123.656 248.41C120.561 248.41 117.881 249.073 115.615 250.399C113.35 251.67 111.609 253.521 110.393 255.953C109.177 258.329 108.57 261.147 108.57 264.408C108.57 266.894 108.901 269.133 109.564 271.122C110.283 273.111 111.305 274.824 112.631 276.261C113.958 277.643 115.532 278.72 117.356 279.494C119.235 280.212 121.335 280.572 123.656 280.572Z"/>
<path d="M192.545 294.995C187.959 294.995 183.703 294.249 179.78 292.757C175.912 291.209 172.513 289.054 169.584 286.291C166.711 283.528 164.473 280.295 162.87 276.593C161.267 272.89 160.466 268.856 160.466 264.491C160.466 260.07 161.295 256.008 162.953 252.306C164.666 248.603 167.015 245.398 169.999 242.69C173.038 239.927 176.547 237.8 180.526 236.307C184.505 234.76 188.76 233.987 193.291 233.987C198.762 233.987 203.653 234.926 207.963 236.805C212.329 238.684 215.865 241.226 218.573 244.431L207.383 255.621C205.338 253.245 203.211 251.477 201 250.316C198.79 249.156 196.137 248.575 193.043 248.575C190.114 248.575 187.461 249.239 185.085 250.565C182.709 251.836 180.802 253.659 179.365 256.036C177.984 258.412 177.293 261.203 177.293 264.408C177.293 267.613 177.929 270.431 179.2 272.863C180.526 275.239 182.35 277.09 184.671 278.416C186.991 279.743 189.699 280.406 192.794 280.406C195.778 280.406 198.292 279.826 200.337 278.665C202.382 277.505 203.929 275.847 204.979 273.692C206.084 271.536 206.637 268.994 206.637 266.066L217.993 273.277L190.556 272.448V259.186H223.298V261.672C223.298 268.746 221.999 274.769 219.402 279.743C216.86 284.716 213.268 288.502 208.626 291.099C204.04 293.696 198.679 294.995 192.545 294.995Z"/>
<path d="M229.504 294V234.981H246.083V294H229.504ZM242.933 294V280.24H274.598V294H242.933ZM242.933 270.625V257.196H271.531V270.625H242.933ZM242.933 248.741V234.981H274.1V248.741H242.933Z"/>
<path d="M294.999 294V234.981H311.577V294H294.999ZM277.343 249.073V234.981H329.316V249.073H277.343Z"/>
<path d="M335.547 294V234.981H352.126V294H335.547ZM371.191 294V234.981H387.769V294H371.191ZM344.583 270.79V257.03H377.656V270.79H344.583Z"/>
<path d="M397.554 294V234.981H414.132V294H397.554ZM410.983 294V280.24H442.647V294H410.983ZM410.983 270.625V257.196H439.58V270.625H410.983ZM410.983 248.741V234.981H442.15V248.741H410.983Z"/>
<path d="M463.923 270.459V259.02H473.953C476.219 259.02 477.932 258.467 479.092 257.362C480.308 256.257 480.916 254.792 480.916 252.969C480.916 251.145 480.308 249.681 479.092 248.575C477.932 247.47 476.219 246.918 473.953 246.918H463.923V234.981H476.605C480.695 234.981 484.287 235.727 487.381 237.219C490.476 238.711 492.907 240.784 494.676 243.436C496.444 246.089 497.328 249.183 497.328 252.72C497.328 256.257 496.417 259.351 494.593 262.004C492.825 264.656 490.338 266.729 487.133 268.221C483.928 269.713 480.142 270.459 475.777 270.459H463.923ZM450.495 294V234.981H467.073V294H450.495ZM482.325 294L466.244 268.801L481.165 265.568L501.141 294H482.325Z"/>
<path d="M66.0325 359.94L53.8959 321.363H64.678L73.2387 351.054H68.254L76.7063 321.363H85.6462L94.0985 351.054H89.168L97.7286 321.363H108.402L96.2657 359.94H87.2716L78.8193 330.303H83.4789L75.0266 359.94H66.0325Z"/>
<path d="M112.057 359.94V321.363H122.894V359.94H112.057ZM120.835 359.94V350.946H141.532V359.94H120.835ZM120.835 344.661V335.883H139.527V344.661H120.835ZM120.835 330.357V321.363H141.207V330.357H120.835Z"/>
<path d="M175.469 360.59C172.507 360.59 169.744 360.102 167.179 359.127C164.651 358.116 162.429 356.707 160.515 354.901C158.601 353.095 157.102 350.982 156.018 348.562C154.97 346.106 154.447 343.451 154.447 340.597C154.447 337.707 154.97 335.053 156.018 332.632C157.102 330.212 158.583 328.117 160.461 326.347C162.375 324.577 164.597 323.205 167.125 322.23C169.654 321.218 172.399 320.713 175.361 320.713C178.359 320.713 181.104 321.182 183.596 322.121C186.089 323.06 188.256 324.361 190.098 326.022L182.892 333.283C182.025 332.343 180.959 331.603 179.695 331.061C178.467 330.519 177.022 330.248 175.361 330.248C173.916 330.248 172.579 330.483 171.351 330.953C170.159 331.422 169.13 332.109 168.263 333.012C167.396 333.915 166.71 335.016 166.204 336.317C165.735 337.581 165.5 339.008 165.5 340.597C165.5 342.223 165.735 343.685 166.204 344.986C166.71 346.25 167.396 347.334 168.263 348.237C169.13 349.14 170.159 349.844 171.351 350.35C172.579 350.819 173.916 351.054 175.361 351.054C176.986 351.054 178.431 350.801 179.695 350.296C180.996 349.79 182.115 349.049 183.054 348.074L190.315 355.334C188.4 356.996 186.251 358.296 183.867 359.235C181.483 360.138 178.684 360.59 175.469 360.59Z"/>
<path d="M211.608 360.698C208.573 360.698 205.774 360.193 203.21 359.181C200.681 358.17 198.46 356.761 196.545 354.955C194.667 353.149 193.204 351.018 192.157 348.562C191.109 346.106 190.585 343.451 190.585 340.597C190.585 337.707 191.091 335.053 192.102 332.632C193.15 330.212 194.613 328.099 196.491 326.293C198.369 324.487 200.573 323.096 203.101 322.121C205.666 321.11 208.465 320.604 211.499 320.604C214.533 320.604 217.315 321.11 219.843 322.121C222.408 323.096 224.629 324.487 226.508 326.293C228.386 328.099 229.831 330.23 230.842 332.687C231.89 335.107 232.413 337.762 232.413 340.651C232.413 343.505 231.89 346.16 230.842 348.616C229.831 351.036 228.386 353.167 226.508 355.009C224.629 356.815 222.426 358.224 219.897 359.235C217.369 360.211 214.606 360.698 211.608 360.698ZM211.499 351.162C213.522 351.162 215.274 350.729 216.755 349.862C218.236 348.995 219.374 347.767 220.168 346.178C220.963 344.588 221.36 342.728 221.36 340.597C221.36 339.008 221.126 337.581 220.656 336.317C220.222 335.016 219.572 333.915 218.705 333.012C217.838 332.073 216.791 331.368 215.563 330.899C214.371 330.393 213.016 330.14 211.499 330.14C209.477 330.14 207.725 330.574 206.244 331.44C204.763 332.271 203.625 333.481 202.83 335.071C202.036 336.624 201.638 338.466 201.638 340.597C201.638 342.223 201.855 343.685 202.288 344.986C202.758 346.286 203.426 347.406 204.293 348.345C205.16 349.248 206.19 349.952 207.382 350.458C208.61 350.928 209.982 351.162 211.499 351.162Z"/>
<path d="M236.876 359.94V321.363H244.732L259.09 342.385H255.677L269.98 321.363H277.837V359.94H267.109V339.134L268.68 339.568L260.824 350.837H253.889L246.086 339.568L247.604 339.134V359.94H236.876Z"/>
<path d="M284.231 359.94V321.363H295.068V359.94H284.231ZM293.009 359.94V350.946H313.706V359.94H293.009ZM293.009 344.661V335.883H311.701V344.661H293.009ZM293.009 330.357V321.363H313.381V330.357H293.009Z"/>
<path d="M337.349 359.94V352.138H344.446C345.819 352.138 346.921 351.776 347.751 351.054C348.582 350.296 348.998 349.266 348.998 347.966C348.998 347.099 348.799 346.358 348.402 345.744C348.04 345.094 347.517 344.606 346.83 344.281C346.18 343.956 345.385 343.794 344.446 343.794H337.349V336.317H343.959C345.115 336.317 346.072 336.028 346.83 335.45C347.589 334.872 347.968 333.969 347.968 332.741C347.968 331.513 347.589 330.61 346.83 330.032C346.072 329.454 345.115 329.165 343.959 329.165H337.349V321.363H346.993C349.341 321.363 351.382 321.814 353.115 322.717C354.885 323.584 356.258 324.794 357.233 326.347C358.208 327.864 358.696 329.616 358.696 331.603C358.696 334.348 357.721 336.588 355.77 338.321C353.82 340.055 350.966 341.049 347.21 341.301L347.101 337.563C351.183 337.816 354.307 338.936 356.475 340.922C358.642 342.909 359.725 345.455 359.725 348.562C359.725 350.801 359.166 352.788 358.046 354.522C356.926 356.219 355.355 357.556 353.332 358.531C351.345 359.47 349.016 359.94 346.343 359.94H337.349ZM328.571 359.94V321.363H339.191V359.94H328.571Z"/>
<path d="M361.415 359.94L376.098 321.363H387.151L401.672 359.94H390.402L379.62 327.16H383.521L372.468 359.94H361.415ZM370.951 353.438V344.986H392.515V353.438H370.951Z"/>
<path d="M421.984 360.59C419.022 360.59 416.258 360.102 413.694 359.127C411.165 358.116 408.944 356.707 407.03 354.901C405.115 353.095 403.616 350.982 402.533 348.562C401.485 346.106 400.961 343.451 400.961 340.597C400.961 337.707 401.485 335.053 402.533 332.632C403.616 330.212 405.097 328.117 406.975 326.347C408.89 324.577 411.111 323.205 413.64 322.23C416.168 321.218 418.913 320.713 421.875 320.713C424.873 320.713 427.618 321.182 430.111 322.121C432.603 323.06 434.77 324.361 436.613 326.022L429.406 333.283C428.54 332.343 427.474 331.603 426.21 331.061C424.982 330.519 423.537 330.248 421.875 330.248C420.43 330.248 419.094 330.483 417.866 330.953C416.674 331.422 415.644 332.109 414.777 333.012C413.911 333.915 413.224 335.016 412.719 336.317C412.249 337.581 412.014 339.008 412.014 340.597C412.014 342.223 412.249 343.685 412.719 344.986C413.224 346.25 413.911 347.334 414.777 348.237C415.644 349.14 416.674 349.844 417.866 350.35C419.094 350.819 420.43 351.054 421.875 351.054C423.501 351.054 424.946 350.801 426.21 350.296C427.51 349.79 428.63 349.049 429.569 348.074L436.829 355.334C434.915 356.996 432.766 358.296 430.382 359.235C427.998 360.138 425.198 360.59 421.984 360.59Z"/>
<path d="M463.991 359.94L450.5 339.839L463.341 321.363H476.399L461.553 341.41V337.942L476.995 359.94H463.991ZM440.585 359.94V321.363H451.421V359.94H440.585Z"/>
<path d="M130.237 427.94V389.363H141.073V427.94H130.237ZM118.696 398.574V389.363H152.668V398.574H118.696Z"/>
<path d="M174.279 428.698C171.244 428.698 168.445 428.193 165.881 427.181C163.352 426.17 161.131 424.761 159.216 422.955C157.338 421.149 155.875 419.018 154.828 416.562C153.78 414.106 153.256 411.451 153.256 408.597C153.256 405.707 153.762 403.053 154.773 400.632C155.821 398.212 157.284 396.099 159.162 394.293C161.04 392.487 163.244 391.096 165.772 390.121C168.337 389.11 171.136 388.604 174.17 388.604C177.204 388.604 179.986 389.11 182.514 390.121C185.079 391.096 187.3 392.487 189.178 394.293C191.057 396.099 192.502 398.23 193.513 400.687C194.56 403.107 195.084 405.762 195.084 408.651C195.084 411.505 194.56 414.16 193.513 416.616C192.502 419.036 191.057 421.167 189.178 423.009C187.3 424.815 185.097 426.224 182.568 427.235C180.04 428.211 177.277 428.698 174.279 428.698ZM174.17 419.162C176.193 419.162 177.945 418.729 179.426 417.862C180.907 416.995 182.045 415.767 182.839 414.178C183.634 412.588 184.031 410.728 184.031 408.597C184.031 407.008 183.796 405.581 183.327 404.317C182.893 403.016 182.243 401.915 181.376 401.012C180.509 400.073 179.462 399.368 178.234 398.899C177.042 398.393 175.687 398.14 174.17 398.14C172.147 398.14 170.396 398.574 168.915 399.44C167.434 400.271 166.296 401.481 165.501 403.071C164.707 404.624 164.309 406.466 164.309 408.597C164.309 410.223 164.526 411.685 164.959 412.986C165.429 414.286 166.097 415.406 166.964 416.345C167.831 417.248 168.86 417.952 170.052 418.458C171.281 418.928 172.653 419.162 174.17 419.162Z"/>
<path d="M219.199 428.59C216.201 428.59 213.42 428.102 210.855 427.127C208.327 426.116 206.105 424.707 204.191 422.901C202.313 421.095 200.85 418.982 199.802 416.562C198.755 414.142 198.231 411.505 198.231 408.651C198.231 405.762 198.773 403.107 199.856 400.687C200.976 398.266 202.511 396.171 204.462 394.402C206.448 392.596 208.742 391.205 211.343 390.23C213.944 389.218 216.725 388.713 219.687 388.713C223.263 388.713 226.459 389.327 229.277 390.555C232.13 391.783 234.442 393.444 236.212 395.539L228.898 402.854C227.561 401.301 226.17 400.145 224.726 399.386C223.281 398.628 221.547 398.248 219.524 398.248C217.61 398.248 215.876 398.682 214.323 399.549C212.77 400.38 211.523 401.572 210.584 403.125C209.681 404.678 209.23 406.502 209.23 408.597C209.23 410.692 209.645 412.534 210.476 414.124C211.343 415.677 212.535 416.887 214.052 417.754C215.569 418.621 217.339 419.054 219.362 419.054C221.312 419.054 222.956 418.675 224.292 417.916C225.629 417.158 226.64 416.074 227.326 414.665C228.049 413.257 228.41 411.595 228.41 409.681L235.833 414.394L217.899 413.853V405.184H239.3V406.809C239.3 411.433 238.452 415.37 236.754 418.621C235.092 421.871 232.744 424.346 229.71 426.043C226.712 427.741 223.209 428.59 219.199 428.59Z"/>
<path d="M243.357 427.94V389.363H254.194V427.94H243.357ZM252.135 427.94V418.946H272.832V427.94H252.135ZM252.135 412.661V403.883H270.827V412.661H252.135ZM252.135 398.357V389.363H272.507V398.357H252.135Z"/>
<path d="M286.167 427.94V389.363H297.003V427.94H286.167ZM274.626 398.574V389.363H308.598V398.574H274.626Z"/>
<path d="M312.671 427.94V389.363H323.508V427.94H312.671ZM335.969 427.94V389.363H346.806V427.94H335.969ZM318.577 412.769V403.775H340.195V412.769H318.577Z"/>
<path d="M353.202 427.94V389.363H364.038V427.94H353.202ZM361.979 427.94V418.946H382.676V427.94H361.979ZM361.979 412.661V403.883H380.671V412.661H361.979ZM361.979 398.357V389.363H382.351V398.357H361.979Z"/>
<path d="M396.583 412.552V405.075H403.139C404.62 405.075 405.74 404.714 406.498 403.992C407.293 403.269 407.69 402.312 407.69 401.12C407.69 399.928 407.293 398.971 406.498 398.248C405.74 397.526 404.62 397.165 403.139 397.165H396.583V389.363H404.873C407.546 389.363 409.894 389.85 411.916 390.826C413.939 391.801 415.528 393.155 416.684 394.889C417.84 396.623 418.418 398.646 418.418 400.957C418.418 403.269 417.822 405.292 416.63 407.026C415.474 408.76 413.849 410.114 411.754 411.089C409.659 412.065 407.184 412.552 404.331 412.552H396.583ZM387.806 427.94V389.363H398.642V427.94H387.806ZM408.611 427.94L398.1 411.469L407.853 409.356L420.91 427.94H408.611Z"/>
</mask>
<path d="M70.3715 190L51.8038 130.981H68.2992L81.3961 176.406H73.77L86.7011 130.981H100.378L113.309 176.406H105.766L118.863 130.981H135.193L116.625 190H102.865L89.9339 144.658H97.0626L84.1315 190H70.3715Z" fill="white"/>
<path d="M140.785 190V130.981H157.363V190H140.785ZM154.213 190V176.24H185.878V190H154.213ZM154.213 166.625V153.196H182.811V166.625H154.213ZM154.213 144.741V130.981H185.38V144.741H154.213Z" fill="white"/>
<path d="M208.62 190V130.981H225.198V190H208.62ZM222.131 190V175.908H249.734V190H222.131Z" fill="white"/>
<path d="M256.056 190V130.981H272.634V190H256.056ZM269.484 190V176.24H301.149V190H269.484ZM269.484 166.625V153.196H298.082V166.625H269.484ZM269.484 144.741V130.981H300.651V144.741H269.484Z" fill="white"/>
<path d="M304.603 190L327.067 130.981H343.976L366.191 190H348.95L332.454 139.851H338.423L321.513 190H304.603ZM319.192 180.053V167.122H352.183V180.053H319.192Z" fill="white"/>
<path d="M381.69 190L360.055 130.981H377.628L393.626 178.644H385.834L402.081 130.981H419.405L397.439 190H381.69Z" fill="white"/>
<path d="M424.915 190V130.981H441.493V190H424.915ZM438.343 190V176.24H470.008V190H438.343ZM438.343 166.625V153.196H466.941V166.625H438.343ZM438.343 144.741V130.981H469.51V144.741H438.343Z" fill="white"/>
<path d="M56.4425 294V234.981H73.0208V294H56.4425ZM38.7866 249.073V234.981H90.7596V249.073H38.7866Z" fill="white"/>
<path d="M123.822 295.16C119.18 295.16 114.897 294.387 110.973 292.84C107.105 291.292 103.707 289.137 100.778 286.374C97.9042 283.611 95.6661 280.351 94.0636 276.593C92.461 272.835 91.6597 268.773 91.6597 264.408C91.6597 259.987 92.4334 255.925 93.9807 252.223C95.5832 248.52 97.8213 245.287 100.695 242.524C103.568 239.761 106.939 237.634 110.808 236.142C114.731 234.594 119.014 233.821 123.656 233.821C128.298 233.821 132.553 234.594 136.421 236.142C140.345 237.634 143.743 239.761 146.617 242.524C149.49 245.287 151.701 248.548 153.248 252.306C154.851 256.008 155.652 260.07 155.652 264.491C155.652 268.856 154.851 272.918 153.248 276.676C151.701 280.378 149.49 283.639 146.617 286.457C143.743 289.22 140.372 291.375 136.504 292.922C132.636 294.414 128.408 295.16 123.822 295.16ZM123.656 280.572C126.75 280.572 129.431 279.908 131.696 278.582C133.962 277.256 135.703 275.377 136.919 272.946C138.134 270.514 138.742 267.668 138.742 264.408C138.742 261.976 138.383 259.793 137.665 257.859C137.001 255.87 136.007 254.184 134.68 252.803C133.354 251.366 131.752 250.289 129.873 249.57C128.049 248.796 125.977 248.41 123.656 248.41C120.561 248.41 117.881 249.073 115.615 250.399C113.35 251.67 111.609 253.521 110.393 255.953C109.177 258.329 108.57 261.147 108.57 264.408C108.57 266.894 108.901 269.133 109.564 271.122C110.283 273.111 111.305 274.824 112.631 276.261C113.958 277.643 115.532 278.72 117.356 279.494C119.235 280.212 121.335 280.572 123.656 280.572Z" fill="white"/>
<path d="M192.545 294.995C187.959 294.995 183.703 294.249 179.78 292.757C175.912 291.209 172.513 289.054 169.584 286.291C166.711 283.528 164.473 280.295 162.87 276.593C161.267 272.89 160.466 268.856 160.466 264.491C160.466 260.07 161.295 256.008 162.953 252.306C164.666 248.603 167.015 245.398 169.999 242.69C173.038 239.927 176.547 237.8 180.526 236.307C184.505 234.76 188.76 233.987 193.291 233.987C198.762 233.987 203.653 234.926 207.963 236.805C212.329 238.684 215.865 241.226 218.573 244.431L207.383 255.621C205.338 253.245 203.211 251.477 201 250.316C198.79 249.156 196.137 248.575 193.043 248.575C190.114 248.575 187.461 249.239 185.085 250.565C182.709 251.836 180.802 253.659 179.365 256.036C177.984 258.412 177.293 261.203 177.293 264.408C177.293 267.613 177.929 270.431 179.2 272.863C180.526 275.239 182.35 277.09 184.671 278.416C186.991 279.743 189.699 280.406 192.794 280.406C195.778 280.406 198.292 279.826 200.337 278.665C202.382 277.505 203.929 275.847 204.979 273.692C206.084 271.536 206.637 268.994 206.637 266.066L217.993 273.277L190.556 272.448V259.186H223.298V261.672C223.298 268.746 221.999 274.769 219.402 279.743C216.86 284.716 213.268 288.502 208.626 291.099C204.04 293.696 198.679 294.995 192.545 294.995Z" fill="white"/>
<path d="M229.504 294V234.981H246.083V294H229.504ZM242.933 294V280.24H274.598V294H242.933ZM242.933 270.625V257.196H271.531V270.625H242.933ZM242.933 248.741V234.981H274.1V248.741H242.933Z" fill="white"/>
<path d="M294.999 294V234.981H311.577V294H294.999ZM277.343 249.073V234.981H329.316V249.073H277.343Z" fill="white"/>
<path d="M335.547 294V234.981H352.126V294H335.547ZM371.191 294V234.981H387.769V294H371.191ZM344.583 270.79V257.03H377.656V270.79H344.583Z" fill="white"/>
<path d="M397.554 294V234.981H414.132V294H397.554ZM410.983 294V280.24H442.647V294H410.983ZM410.983 270.625V257.196H439.58V270.625H410.983ZM410.983 248.741V234.981H442.15V248.741H410.983Z" fill="white"/>
<path d="M463.923 270.459V259.02H473.953C476.219 259.02 477.932 258.467 479.092 257.362C480.308 256.257 480.916 254.792 480.916 252.969C480.916 251.145 480.308 249.681 479.092 248.575C477.932 247.47 476.219 246.918 473.953 246.918H463.923V234.981H476.605C480.695 234.981 484.287 235.727 487.381 237.219C490.476 238.711 492.907 240.784 494.676 243.436C496.444 246.089 497.328 249.183 497.328 252.72C497.328 256.257 496.417 259.351 494.593 262.004C492.825 264.656 490.338 266.729 487.133 268.221C483.928 269.713 480.142 270.459 475.777 270.459H463.923ZM450.495 294V234.981H467.073V294H450.495ZM482.325 294L466.244 268.801L481.165 265.568L501.141 294H482.325Z" fill="white"/>
<path d="M66.0325 359.94L53.8959 321.363H64.678L73.2387 351.054H68.254L76.7063 321.363H85.6462L94.0985 351.054H89.168L97.7286 321.363H108.402L96.2657 359.94H87.2716L78.8193 330.303H83.4789L75.0266 359.94H66.0325Z" fill="white"/>
<path d="M112.057 359.94V321.363H122.894V359.94H112.057ZM120.835 359.94V350.946H141.532V359.94H120.835ZM120.835 344.661V335.883H139.527V344.661H120.835ZM120.835 330.357V321.363H141.207V330.357H120.835Z" fill="white"/>
<path d="M175.469 360.59C172.507 360.59 169.744 360.102 167.179 359.127C164.651 358.116 162.429 356.707 160.515 354.901C158.601 353.095 157.102 350.982 156.018 348.562C154.97 346.106 154.447 343.451 154.447 340.597C154.447 337.707 154.97 335.053 156.018 332.632C157.102 330.212 158.583 328.117 160.461 326.347C162.375 324.577 164.597 323.205 167.125 322.23C169.654 321.218 172.399 320.713 175.361 320.713C178.359 320.713 181.104 321.182 183.596 322.121C186.089 323.06 188.256 324.361 190.098 326.022L182.892 333.283C182.025 332.343 180.959 331.603 179.695 331.061C178.467 330.519 177.022 330.248 175.361 330.248C173.916 330.248 172.579 330.483 171.351 330.953C170.159 331.422 169.13 332.109 168.263 333.012C167.396 333.915 166.71 335.016 166.204 336.317C165.735 337.581 165.5 339.008 165.5 340.597C165.5 342.223 165.735 343.685 166.204 344.986C166.71 346.25 167.396 347.334 168.263 348.237C169.13 349.14 170.159 349.844 171.351 350.35C172.579 350.819 173.916 351.054 175.361 351.054C176.986 351.054 178.431 350.801 179.695 350.296C180.996 349.79 182.115 349.049 183.054 348.074L190.315 355.334C188.4 356.996 186.251 358.296 183.867 359.235C181.483 360.138 178.684 360.59 175.469 360.59Z" fill="white"/>
<path d="M211.608 360.698C208.573 360.698 205.774 360.193 203.21 359.181C200.681 358.17 198.46 356.761 196.545 354.955C194.667 353.149 193.204 351.018 192.157 348.562C191.109 346.106 190.585 343.451 190.585 340.597C190.585 337.707 191.091 335.053 192.102 332.632C193.15 330.212 194.613 328.099 196.491 326.293C198.369 324.487 200.573 323.096 203.101 322.121C205.666 321.11 208.465 320.604 211.499 320.604C214.533 320.604 217.315 321.11 219.843 322.121C222.408 323.096 224.629 324.487 226.508 326.293C228.386 328.099 229.831 330.23 230.842 332.687C231.89 335.107 232.413 337.762 232.413 340.651C232.413 343.505 231.89 346.16 230.842 348.616C229.831 351.036 228.386 353.167 226.508 355.009C224.629 356.815 222.426 358.224 219.897 359.235C217.369 360.211 214.606 360.698 211.608 360.698ZM211.499 351.162C213.522 351.162 215.274 350.729 216.755 349.862C218.236 348.995 219.374 347.767 220.168 346.178C220.963 344.588 221.36 342.728 221.36 340.597C221.36 339.008 221.126 337.581 220.656 336.317C220.222 335.016 219.572 333.915 218.705 333.012C217.838 332.073 216.791 331.368 215.563 330.899C214.371 330.393 213.016 330.14 211.499 330.14C209.477 330.14 207.725 330.574 206.244 331.44C204.763 332.271 203.625 333.481 202.83 335.071C202.036 336.624 201.638 338.466 201.638 340.597C201.638 342.223 201.855 343.685 202.288 344.986C202.758 346.286 203.426 347.406 204.293 348.345C205.16 349.248 206.19 349.952 207.382 350.458C208.61 350.928 209.982 351.162 211.499 351.162Z" fill="white"/>
<path d="M236.876 359.94V321.363H244.732L259.09 342.385H255.677L269.98 321.363H277.837V359.94H267.109V339.134L268.68 339.568L260.824 350.837H253.889L246.086 339.568L247.604 339.134V359.94H236.876Z" fill="white"/>
<path d="M284.231 359.94V321.363H295.068V359.94H284.231ZM293.009 359.94V350.946H313.706V359.94H293.009ZM293.009 344.661V335.883H311.701V344.661H293.009ZM293.009 330.357V321.363H313.381V330.357H293.009Z" fill="white"/>
<path d="M337.349 359.94V352.138H344.446C345.819 352.138 346.921 351.776 347.751 351.054C348.582 350.296 348.998 349.266 348.998 347.966C348.998 347.099 348.799 346.358 348.402 345.744C348.04 345.094 347.517 344.606 346.83 344.281C346.18 343.956 345.385 343.794 344.446 343.794H337.349V336.317H343.959C345.115 336.317 346.072 336.028 346.83 335.45C347.589 334.872 347.968 333.969 347.968 332.741C347.968 331.513 347.589 330.61 346.83 330.032C346.072 329.454 345.115 329.165 343.959 329.165H337.349V321.363H346.993C349.341 321.363 351.382 321.814 353.115 322.717C354.885 323.584 356.258 324.794 357.233 326.347C358.208 327.864 358.696 329.616 358.696 331.603C358.696 334.348 357.721 336.588 355.77 338.321C353.82 340.055 350.966 341.049 347.21 341.301L347.101 337.563C351.183 337.816 354.307 338.936 356.475 340.922C358.642 342.909 359.725 345.455 359.725 348.562C359.725 350.801 359.166 352.788 358.046 354.522C356.926 356.219 355.355 357.556 353.332 358.531C351.345 359.47 349.016 359.94 346.343 359.94H337.349ZM328.571 359.94V321.363H339.191V359.94H328.571Z" fill="white"/>
<path d="M361.415 359.94L376.098 321.363H387.151L401.672 359.94H390.402L379.62 327.16H383.521L372.468 359.94H361.415ZM370.951 353.438V344.986H392.515V353.438H370.951Z" fill="white"/>
<path d="M421.984 360.59C419.022 360.59 416.258 360.102 413.694 359.127C411.165 358.116 408.944 356.707 407.03 354.901C405.115 353.095 403.616 350.982 402.533 348.562C401.485 346.106 400.961 343.451 400.961 340.597C400.961 337.707 401.485 335.053 402.533 332.632C403.616 330.212 405.097 328.117 406.975 326.347C408.89 324.577 411.111 323.205 413.64 322.23C416.168 321.218 418.913 320.713 421.875 320.713C424.873 320.713 427.618 321.182 430.111 322.121C432.603 323.06 434.77 324.361 436.613 326.022L429.406 333.283C428.54 332.343 427.474 331.603 426.21 331.061C424.982 330.519 423.537 330.248 421.875 330.248C420.43 330.248 419.094 330.483 417.866 330.953C416.674 331.422 415.644 332.109 414.777 333.012C413.911 333.915 413.224 335.016 412.719 336.317C412.249 337.581 412.014 339.008 412.014 340.597C412.014 342.223 412.249 343.685 412.719 344.986C413.224 346.25 413.911 347.334 414.777 348.237C415.644 349.14 416.674 349.844 417.866 350.35C419.094 350.819 420.43 351.054 421.875 351.054C423.501 351.054 424.946 350.801 426.21 350.296C427.51 349.79 428.63 349.049 429.569 348.074L436.829 355.334C434.915 356.996 432.766 358.296 430.382 359.235C427.998 360.138 425.198 360.59 421.984 360.59Z" fill="white"/>
<path d="M463.991 359.94L450.5 339.839L463.341 321.363H476.399L461.553 341.41V337.942L476.995 359.94H463.991ZM440.585 359.94V321.363H451.421V359.94H440.585Z" fill="white"/>
<path d="M130.237 427.94V389.363H141.073V427.94H130.237ZM118.696 398.574V389.363H152.668V398.574H118.696Z" fill="white"/>
<path d="M174.279 428.698C171.244 428.698 168.445 428.193 165.881 427.181C163.352 426.17 161.131 424.761 159.216 422.955C157.338 421.149 155.875 419.018 154.828 416.562C153.78 414.106 153.256 411.451 153.256 408.597C153.256 405.707 153.762 403.053 154.773 400.632C155.821 398.212 157.284 396.099 159.162 394.293C161.04 392.487 163.244 391.096 165.772 390.121C168.337 389.11 171.136 388.604 174.17 388.604C177.204 388.604 179.986 389.11 182.514 390.121C185.079 391.096 187.3 392.487 189.178 394.293C191.057 396.099 192.502 398.23 193.513 400.687C194.56 403.107 195.084 405.762 195.084 408.651C195.084 411.505 194.56 414.16 193.513 416.616C192.502 419.036 191.057 421.167 189.178 423.009C187.3 424.815 185.097 426.224 182.568 427.235C180.04 428.211 177.277 428.698 174.279 428.698ZM174.17 419.162C176.193 419.162 177.945 418.729 179.426 417.862C180.907 416.995 182.045 415.767 182.839 414.178C183.634 412.588 184.031 410.728 184.031 408.597C184.031 407.008 183.796 405.581 183.327 404.317C182.893 403.016 182.243 401.915 181.376 401.012C180.509 400.073 179.462 399.368 178.234 398.899C177.042 398.393 175.687 398.14 174.17 398.14C172.147 398.14 170.396 398.574 168.915 399.44C167.434 400.271 166.296 401.481 165.501 403.071C164.707 404.624 164.309 406.466 164.309 408.597C164.309 410.223 164.526 411.685 164.959 412.986C165.429 414.286 166.097 415.406 166.964 416.345C167.831 417.248 168.86 417.952 170.052 418.458C171.281 418.928 172.653 419.162 174.17 419.162Z" fill="white"/>
<path d="M219.199 428.59C216.201 428.59 213.42 428.102 210.855 427.127C208.327 426.116 206.105 424.707 204.191 422.901C202.313 421.095 200.85 418.982 199.802 416.562C198.755 414.142 198.231 411.505 198.231 408.651C198.231 405.762 198.773 403.107 199.856 400.687C200.976 398.266 202.511 396.171 204.462 394.402C206.448 392.596 208.742 391.205 211.343 390.23C213.944 389.218 216.725 388.713 219.687 388.713C223.263 388.713 226.459 389.327 229.277 390.555C232.13 391.783 234.442 393.444 236.212 395.539L228.898 402.854C227.561 401.301 226.17 400.145 224.726 399.386C223.281 398.628 221.547 398.248 219.524 398.248C217.61 398.248 215.876 398.682 214.323 399.549C212.77 400.38 211.523 401.572 210.584 403.125C209.681 404.678 209.23 406.502 209.23 408.597C209.23 410.692 209.645 412.534 210.476 414.124C211.343 415.677 212.535 416.887 214.052 417.754C215.569 418.621 217.339 419.054 219.362 419.054C221.312 419.054 222.956 418.675 224.292 417.916C225.629 417.158 226.64 416.074 227.326 414.665C228.049 413.257 228.41 411.595 228.41 409.681L235.833 414.394L217.899 413.853V405.184H239.3V406.809C239.3 411.433 238.452 415.37 236.754 418.621C235.092 421.871 232.744 424.346 229.71 426.043C226.712 427.741 223.209 428.59 219.199 428.59Z" fill="white"/>
<path d="M243.357 427.94V389.363H254.194V427.94H243.357ZM252.135 427.94V418.946H272.832V427.94H252.135ZM252.135 412.661V403.883H270.827V412.661H252.135ZM252.135 398.357V389.363H272.507V398.357H252.135Z" fill="white"/>
<path d="M286.167 427.94V389.363H297.003V427.94H286.167ZM274.626 398.574V389.363H308.598V398.574H274.626Z" fill="white"/>
<path d="M312.671 427.94V389.363H323.508V427.94H312.671ZM335.969 427.94V389.363H346.806V427.94H335.969ZM318.577 412.769V403.775H340.195V412.769H318.577Z" fill="white"/>
<path d="M353.202 427.94V389.363H364.038V427.94H353.202ZM361.979 427.94V418.946H382.676V427.94H361.979ZM361.979 412.661V403.883H380.671V412.661H361.979ZM361.979 398.357V389.363H382.351V398.357H361.979Z" fill="white"/>
<path d="M396.583 412.552V405.075H403.139C404.62 405.075 405.74 404.714 406.498 403.992C407.293 403.269 407.69 402.312 407.69 401.12C407.69 399.928 407.293 398.971 406.498 398.248C405.74 397.526 404.62 397.165 403.139 397.165H396.583V389.363H404.873C407.546 389.363 409.894 389.85 411.916 390.826C413.939 391.801 415.528 393.155 416.684 394.889C417.84 396.623 418.418 398.646 418.418 400.957C418.418 403.269 417.822 405.292 416.63 407.026C415.474 408.76 413.849 410.114 411.754 411.089C409.659 412.065 407.184 412.552 404.331 412.552H396.583ZM387.806 427.94V389.363H398.642V427.94H387.806ZM408.611 427.94L398.1 411.469L407.853 409.356L420.91 427.94H408.611Z" fill="white"/>
<path d="M70.3715 190L51.8038 130.981H68.2992L81.3961 176.406H73.77L86.7011 130.981H100.378L113.309 176.406H105.766L118.863 130.981H135.193L116.625 190H102.865L89.9339 144.658H97.0626L84.1315 190H70.3715Z" stroke="white" stroke-width="0.903022" mask="url(#path-2-outside-1_254_29)"/>
<path d="M140.785 190V130.981H157.363V190H140.785ZM154.213 190V176.24H185.878V190H154.213ZM154.213 166.625V153.196H182.811V166.625H154.213ZM154.213 144.741V130.981H185.38V144.741H154.213Z" stroke="white" stroke-width="0.903022" mask="url(#path-2-outside-1_254_29)"/>
<path d="M208.62 190V130.981H225.198V190H208.62ZM222.131 190V175.908H249.734V190H222.131Z" stroke="white" stroke-width="0.903022" mask="url(#path-2-outside-1_254_29)"/>
<path d="M256.056 190V130.981H272.634V190H256.056ZM269.484 190V176.24H301.149V190H269.484ZM269.484 166.625V153.196H298.082V166.625H269.484ZM269.484 144.741V130.981H300.651V144.741H269.484Z" stroke="white" stroke-width="0.903022" mask="url(#path-2-outside-1_254_29)"/>
<path d="M304.603 190L327.067 130.981H343.976L366.191 190H348.95L332.454 139.851H338.423L321.513 190H304.603ZM319.192 180.053V167.122H352.183V180.053H319.192Z" stroke="white" stroke-width="0.903022" mask="url(#path-2-outside-1_254_29)"/>
<path d="M381.69 190L360.055 130.981H377.628L393.626 178.644H385.834L402.081 130.981H419.405L397.439 190H381.69Z" stroke="white" stroke-width="0.903022" mask="url(#path-2-outside-1_254_29)"/>
<path d="M424.915 190V130.981H441.493V190H424.915ZM438.343 190V176.24H470.008V190H438.343ZM438.343 166.625V153.196H466.941V166.625H438.343ZM438.343 144.741V130.981H469.51V144.741H438.343Z" stroke="white" stroke-width="0.903022" mask="url(#path-2-outside-1_254_29)"/>
<path d="M56.4425 294V234.981H73.0208V294H56.4425ZM38.7866 249.073V234.981H90.7596V249.073H38.7866Z" stroke="white" stroke-width="0.903022" mask="url(#path-2-outside-1_254_29)"/>
<path d="M123.822 295.16C119.18 295.16 114.897 294.387 110.973 292.84C107.105 291.292 103.707 289.137 100.778 286.374C97.9042 283.611 95.6661 280.351 94.0636 276.593C92.461 272.835 91.6597 268.773 91.6597 264.408C91.6597 259.987 92.4334 255.925 93.9807 252.223C95.5832 248.52 97.8213 245.287 100.695 242.524C103.568 239.761 106.939 237.634 110.808 236.142C114.731 234.594 119.014 233.821 123.656 233.821C128.298 233.821 132.553 234.594 136.421 236.142C140.345 237.634 143.743 239.761 146.617 242.524C149.49 245.287 151.701 248.548 153.248 252.306C154.851 256.008 155.652 260.07 155.652 264.491C155.652 268.856 154.851 272.918 153.248 276.676C151.701 280.378 149.49 283.639 146.617 286.457C143.743 289.22 140.372 291.375 136.504 292.922C132.636 294.414 128.408 295.16 123.822 295.16ZM123.656 280.572C126.75 280.572 129.431 279.908 131.696 278.582C133.962 277.256 135.703 275.377 136.919 272.946C138.134 270.514 138.742 267.668 138.742 264.408C138.742 261.976 138.383 259.793 137.665 257.859C137.001 255.87 136.007 254.184 134.68 252.803C133.354 251.366 131.752 250.289 129.873 249.57C128.049 248.796 125.977 248.41 123.656 248.41C120.561 248.41 117.881 249.073 115.615 250.399C113.35 251.67 111.609 253.521 110.393 255.953C109.177 258.329 108.57 261.147 108.57 264.408C108.57 266.894 108.901 269.133 109.564 271.122C110.283 273.111 111.305 274.824 112.631 276.261C113.958 277.643 115.532 278.72 117.356 279.494C119.235 280.212 121.335 280.572 123.656 280.572Z" stroke="white" stroke-width="0.903022" mask="url(#path-2-outside-1_254_29)"/>
<path d="M192.545 294.995C187.959 294.995 183.703 294.249 179.78 292.757C175.912 291.209 172.513 289.054 169.584 286.291C166.711 283.528 164.473 280.295 162.87 276.593C161.267 272.89 160.466 268.856 160.466 264.491C160.466 260.07 161.295 256.008 162.953 252.306C164.666 248.603 167.015 245.398 169.999 242.69C173.038 239.927 176.547 237.8 180.526 236.307C184.505 234.76 188.76 233.987 193.291 233.987C198.762 233.987 203.653 234.926 207.963 236.805C212.329 238.684 215.865 241.226 218.573 244.431L207.383 255.621C205.338 253.245 203.211 251.477 201 250.316C198.79 249.156 196.137 248.575 193.043 248.575C190.114 248.575 187.461 249.239 185.085 250.565C182.709 251.836 180.802 253.659 179.365 256.036C177.984 258.412 177.293 261.203 177.293 264.408C177.293 267.613 177.929 270.431 179.2 272.863C180.526 275.239 182.35 277.09 184.671 278.416C186.991 279.743 189.699 280.406 192.794 280.406C195.778 280.406 198.292 279.826 200.337 278.665C202.382 277.505 203.929 275.847 204.979 273.692C206.084 271.536 206.637 268.994 206.637 266.066L217.993 273.277L190.556 272.448V259.186H223.298V261.672C223.298 268.746 221.999 274.769 219.402 279.743C216.86 284.716 213.268 288.502 208.626 291.099C204.04 293.696 198.679 294.995 192.545 294.995Z" stroke="white" stroke-width="0.903022" mask="url(#path-2-outside-1_254_29)"/>
<path d="M229.504 294V234.981H246.083V294H229.504ZM242.933 294V280.24H274.598V294H242.933ZM242.933 270.625V257.196H271.531V270.625H242.933ZM242.933 248.741V234.981H274.1V248.741H242.933Z" stroke="white" stroke-width="0.903022" mask="url(#path-2-outside-1_254_29)"/>
<path d="M294.999 294V234.981H311.577V294H294.999ZM277.343 249.073V234.981H329.316V249.073H277.343Z" stroke="white" stroke-width="0.903022" mask="url(#path-2-outside-1_254_29)"/>
<path d="M335.547 294V234.981H352.126V294H335.547ZM371.191 294V234.981H387.769V294H371.191ZM344.583 270.79V257.03H377.656V270.79H344.583Z" stroke="white" stroke-width="0.903022" mask="url(#path-2-outside-1_254_29)"/>
<path d="M397.554 294V234.981H414.132V294H397.554ZM410.983 294V280.24H442.647V294H410.983ZM410.983 270.625V257.196H439.58V270.625H410.983ZM410.983 248.741V234.981H442.15V248.741H410.983Z" stroke="white" stroke-width="0.903022" mask="url(#path-2-outside-1_254_29)"/>
<path d="M463.923 270.459V259.02H473.953C476.219 259.02 477.932 258.467 479.092 257.362C480.308 256.257 480.916 254.792 480.916 252.969C480.916 251.145 480.308 249.681 479.092 248.575C477.932 247.47 476.219 246.918 473.953 246.918H463.923V234.981H476.605C480.695 234.981 484.287 235.727 487.381 237.219C490.476 238.711 492.907 240.784 494.676 243.436C496.444 246.089 497.328 249.183 497.328 252.72C497.328 256.257 496.417 259.351 494.593 262.004C492.825 264.656 490.338 266.729 487.133 268.221C483.928 269.713 480.142 270.459 475.777 270.459H463.923ZM450.495 294V234.981H467.073V294H450.495ZM482.325 294L466.244 268.801L481.165 265.568L501.141 294H482.325Z" stroke="white" stroke-width="0.903022" mask="url(#path-2-outside-1_254_29)"/>
<path d="M66.0325 359.94L53.8959 321.363H64.678L73.2387 351.054H68.254L76.7063 321.363H85.6462L94.0985 351.054H89.168L97.7286 321.363H108.402L96.2657 359.94H87.2716L78.8193 330.303H83.4789L75.0266 359.94H66.0325Z" stroke="white" stroke-width="0.903022" mask="url(#path-2-outside-1_254_29)"/>
<path d="M112.057 359.94V321.363H122.894V359.94H112.057ZM120.835 359.94V350.946H141.532V359.94H120.835ZM120.835 344.661V335.883H139.527V344.661H120.835ZM120.835 330.357V321.363H141.207V330.357H120.835Z" stroke="white" stroke-width="0.903022" mask="url(#path-2-outside-1_254_29)"/>
<path d="M175.469 360.59C172.507 360.59 169.744 360.102 167.179 359.127C164.651 358.116 162.429 356.707 160.515 354.901C158.601 353.095 157.102 350.982 156.018 348.562C154.97 346.106 154.447 343.451 154.447 340.597C154.447 337.707 154.97 335.053 156.018 332.632C157.102 330.212 158.583 328.117 160.461 326.347C162.375 324.577 164.597 323.205 167.125 322.23C169.654 321.218 172.399 320.713 175.361 320.713C178.359 320.713 181.104 321.182 183.596 322.121C186.089 323.06 188.256 324.361 190.098 326.022L182.892 333.283C182.025 332.343 180.959 331.603 179.695 331.061C178.467 330.519 177.022 330.248 175.361 330.248C173.916 330.248 172.579 330.483 171.351 330.953C170.159 331.422 169.13 332.109 168.263 333.012C167.396 333.915 166.71 335.016 166.204 336.317C165.735 337.581 165.5 339.008 165.5 340.597C165.5 342.223 165.735 343.685 166.204 344.986C166.71 346.25 167.396 347.334 168.263 348.237C169.13 349.14 170.159 349.844 171.351 350.35C172.579 350.819 173.916 351.054 175.361 351.054C176.986 351.054 178.431 350.801 179.695 350.296C180.996 349.79 182.115 349.049 183.054 348.074L190.315 355.334C188.4 356.996 186.251 358.296 183.867 359.235C181.483 360.138 178.684 360.59 175.469 360.59Z" stroke="white" stroke-width="0.903022" mask="url(#path-2-outside-1_254_29)"/>
<path d="M211.608 360.698C208.573 360.698 205.774 360.193 203.21 359.181C200.681 358.17 198.46 356.761 196.545 354.955C194.667 353.149 193.204 351.018 192.157 348.562C191.109 346.106 190.585 343.451 190.585 340.597C190.585 337.707 191.091 335.053 192.102 332.632C193.15 330.212 194.613 328.099 196.491 326.293C198.369 324.487 200.573 323.096 203.101 322.121C205.666 321.11 208.465 320.604 211.499 320.604C214.533 320.604 217.315 321.11 219.843 322.121C222.408 323.096 224.629 324.487 226.508 326.293C228.386 328.099 229.831 330.23 230.842 332.687C231.89 335.107 232.413 337.762 232.413 340.651C232.413 343.505 231.89 346.16 230.842 348.616C229.831 351.036 228.386 353.167 226.508 355.009C224.629 356.815 222.426 358.224 219.897 359.235C217.369 360.211 214.606 360.698 211.608 360.698ZM211.499 351.162C213.522 351.162 215.274 350.729 216.755 349.862C218.236 348.995 219.374 347.767 220.168 346.178C220.963 344.588 221.36 342.728 221.36 340.597C221.36 339.008 221.126 337.581 220.656 336.317C220.222 335.016 219.572 333.915 218.705 333.012C217.838 332.073 216.791 331.368 215.563 330.899C214.371 330.393 213.016 330.14 211.499 330.14C209.477 330.14 207.725 330.574 206.244 331.44C204.763 332.271 203.625 333.481 202.83 335.071C202.036 336.624 201.638 338.466 201.638 340.597C201.638 342.223 201.855 343.685 202.288 344.986C202.758 346.286 203.426 347.406 204.293 348.345C205.16 349.248 206.19 349.952 207.382 350.458C208.61 350.928 209.982 351.162 211.499 351.162Z" stroke="white" stroke-width="0.903022" mask="url(#path-2-outside-1_254_29)"/>
<path d="M236.876 359.94V321.363H244.732L259.09 342.385H255.677L269.98 321.363H277.837V359.94H267.109V339.134L268.68 339.568L260.824 350.837H253.889L246.086 339.568L247.604 339.134V359.94H236.876Z" stroke="white" stroke-width="0.903022" mask="url(#path-2-outside-1_254_29)"/>
<path d="M284.231 359.94V321.363H295.068V359.94H284.231ZM293.009 359.94V350.946H313.706V359.94H293.009ZM293.009 344.661V335.883H311.701V344.661H293.009ZM293.009 330.357V321.363H313.381V330.357H293.009Z" stroke="white" stroke-width="0.903022" mask="url(#path-2-outside-1_254_29)"/>
<path d="M337.349 359.94V352.138H344.446C345.819 352.138 346.921 351.776 347.751 351.054C348.582 350.296 348.998 349.266 348.998 347.966C348.998 347.099 348.799 346.358 348.402 345.744C348.04 345.094 347.517 344.606 346.83 344.281C346.18 343.956 345.385 343.794 344.446 343.794H337.349V336.317H343.959C345.115 336.317 346.072 336.028 346.83 335.45C347.589 334.872 347.968 333.969 347.968 332.741C347.968 331.513 347.589 330.61 346.83 330.032C346.072 329.454 345.115 329.165 343.959 329.165H337.349V321.363H346.993C349.341 321.363 351.382 321.814 353.115 322.717C354.885 323.584 356.258 324.794 357.233 326.347C358.208 327.864 358.696 329.616 358.696 331.603C358.696 334.348 357.721 336.588 355.77 338.321C353.82 340.055 350.966 341.049 347.21 341.301L347.101 337.563C351.183 337.816 354.307 338.936 356.475 340.922C358.642 342.909 359.725 345.455 359.725 348.562C359.725 350.801 359.166 352.788 358.046 354.522C356.926 356.219 355.355 357.556 353.332 358.531C351.345 359.47 349.016 359.94 346.343 359.94H337.349ZM328.571 359.94V321.363H339.191V359.94H328.571Z" stroke="white" stroke-width="0.903022" mask="url(#path-2-outside-1_254_29)"/>
<path d="M361.415 359.94L376.098 321.363H387.151L401.672 359.94H390.402L379.62 327.16H383.521L372.468 359.94H361.415ZM370.951 353.438V344.986H392.515V353.438H370.951Z" stroke="white" stroke-width="0.903022" mask="url(#path-2-outside-1_254_29)"/>
<path d="M421.984 360.59C419.022 360.59 416.258 360.102 413.694 359.127C411.165 358.116 408.944 356.707 407.03 354.901C405.115 353.095 403.616 350.982 402.533 348.562C401.485 346.106 400.961 343.451 400.961 340.597C400.961 337.707 401.485 335.053 402.533 332.632C403.616 330.212 405.097 328.117 406.975 326.347C408.89 324.577 411.111 323.205 413.64 322.23C416.168 321.218 418.913 320.713 421.875 320.713C424.873 320.713 427.618 321.182 430.111 322.121C432.603 323.06 434.77 324.361 436.613 326.022L429.406 333.283C428.54 332.343 427.474 331.603 426.21 331.061C424.982 330.519 423.537 330.248 421.875 330.248C420.43 330.248 419.094 330.483 417.866 330.953C416.674 331.422 415.644 332.109 414.777 333.012C413.911 333.915 413.224 335.016 412.719 336.317C412.249 337.581 412.014 339.008 412.014 340.597C412.014 342.223 412.249 343.685 412.719 344.986C413.224 346.25 413.911 347.334 414.777 348.237C415.644 349.14 416.674 349.844 417.866 350.35C419.094 350.819 420.43 351.054 421.875 351.054C423.501 351.054 424.946 350.801 426.21 350.296C427.51 349.79 428.63 349.049 429.569 348.074L436.829 355.334C434.915 356.996 432.766 358.296 430.382 359.235C427.998 360.138 425.198 360.59 421.984 360.59Z" stroke="white" stroke-width="0.903022" mask="url(#path-2-outside-1_254_29)"/>
<path d="M463.991 359.94L450.5 339.839L463.341 321.363H476.399L461.553 341.41V337.942L476.995 359.94H463.991ZM440.585 359.94V321.363H451.421V359.94H440.585Z" stroke="white" stroke-width="0.903022" mask="url(#path-2-outside-1_254_29)"/>
<path d="M130.237 427.94V389.363H141.073V427.94H130.237ZM118.696 398.574V389.363H152.668V398.574H118.696Z" stroke="white" stroke-width="0.903022" mask="url(#path-2-outside-1_254_29)"/>
<path d="M174.279 428.698C171.244 428.698 168.445 428.193 165.881 427.181C163.352 426.17 161.131 424.761 159.216 422.955C157.338 421.149 155.875 419.018 154.828 416.562C153.78 414.106 153.256 411.451 153.256 408.597C153.256 405.707 153.762 403.053 154.773 400.632C155.821 398.212 157.284 396.099 159.162 394.293C161.04 392.487 163.244 391.096 165.772 390.121C168.337 389.11 171.136 388.604 174.17 388.604C177.204 388.604 179.986 389.11 182.514 390.121C185.079 391.096 187.3 392.487 189.178 394.293C191.057 396.099 192.502 398.23 193.513 400.687C194.56 403.107 195.084 405.762 195.084 408.651C195.084 411.505 194.56 414.16 193.513 416.616C192.502 419.036 191.057 421.167 189.178 423.009C187.3 424.815 185.097 426.224 182.568 427.235C180.04 428.211 177.277 428.698 174.279 428.698ZM174.17 419.162C176.193 419.162 177.945 418.729 179.426 417.862C180.907 416.995 182.045 415.767 182.839 414.178C183.634 412.588 184.031 410.728 184.031 408.597C184.031 407.008 183.796 405.581 183.327 404.317C182.893 403.016 182.243 401.915 181.376 401.012C180.509 400.073 179.462 399.368 178.234 398.899C177.042 398.393 175.687 398.14 174.17 398.14C172.147 398.14 170.396 398.574 168.915 399.44C167.434 400.271 166.296 401.481 165.501 403.071C164.707 404.624 164.309 406.466 164.309 408.597C164.309 410.223 164.526 411.685 164.959 412.986C165.429 414.286 166.097 415.406 166.964 416.345C167.831 417.248 168.86 417.952 170.052 418.458C171.281 418.928 172.653 419.162 174.17 419.162Z" stroke="white" stroke-width="0.903022" mask="url(#path-2-outside-1_254_29)"/>
<path d="M219.199 428.59C216.201 428.59 213.42 428.102 210.855 427.127C208.327 426.116 206.105 424.707 204.191 422.901C202.313 421.095 200.85 418.982 199.802 416.562C198.755 414.142 198.231 411.505 198.231 408.651C198.231 405.762 198.773 403.107 199.856 400.687C200.976 398.266 202.511 396.171 204.462 394.402C206.448 392.596 208.742 391.205 211.343 390.23C213.944 389.218 216.725 388.713 219.687 388.713C223.263 388.713 226.459 389.327 229.277 390.555C232.13 391.783 234.442 393.444 236.212 395.539L228.898 402.854C227.561 401.301 226.17 400.145 224.726 399.386C223.281 398.628 221.547 398.248 219.524 398.248C217.61 398.248 215.876 398.682 214.323 399.549C212.77 400.38 211.523 401.572 210.584 403.125C209.681 404.678 209.23 406.502 209.23 408.597C209.23 410.692 209.645 412.534 210.476 414.124C211.343 415.677 212.535 416.887 214.052 417.754C215.569 418.621 217.339 419.054 219.362 419.054C221.312 419.054 222.956 418.675 224.292 417.916C225.629 417.158 226.64 416.074 227.326 414.665C228.049 413.257 228.41 411.595 228.41 409.681L235.833 414.394L217.899 413.853V405.184H239.3V406.809C239.3 411.433 238.452 415.37 236.754 418.621C235.092 421.871 232.744 424.346 229.71 426.043C226.712 427.741 223.209 428.59 219.199 428.59Z" stroke="white" stroke-width="0.903022" mask="url(#path-2-outside-1_254_29)"/>
<path d="M243.357 427.94V389.363H254.194V427.94H243.357ZM252.135 427.94V418.946H272.832V427.94H252.135ZM252.135 412.661V403.883H270.827V412.661H252.135ZM252.135 398.357V389.363H272.507V398.357H252.135Z" stroke="white" stroke-width="0.903022" mask="url(#path-2-outside-1_254_29)"/>
<path d="M286.167 427.94V389.363H297.003V427.94H286.167ZM274.626 398.574V389.363H308.598V398.574H274.626Z" stroke="white" stroke-width="0.903022" mask="url(#path-2-outside-1_254_29)"/>
<path d="M312.671 427.94V389.363H323.508V427.94H312.671ZM335.969 427.94V389.363H346.806V427.94H335.969ZM318.577 412.769V403.775H340.195V412.769H318.577Z" stroke="white" stroke-width="0.903022" mask="url(#path-2-outside-1_254_29)"/>
<path d="M353.202 427.94V389.363H364.038V427.94H353.202ZM361.979 427.94V418.946H382.676V427.94H361.979ZM361.979 412.661V403.883H380.671V412.661H361.979ZM361.979 398.357V389.363H382.351V398.357H361.979Z" stroke="white" stroke-width="0.903022" mask="url(#path-2-outside-1_254_29)"/>
<path d="M396.583 412.552V405.075H403.139C404.62 405.075 405.74 404.714 406.498 403.992C407.293 403.269 407.69 402.312 407.69 401.12C407.69 399.928 407.293 398.971 406.498 398.248C405.74 397.526 404.62 397.165 403.139 397.165H396.583V389.363H404.873C407.546 389.363 409.894 389.85 411.916 390.826C413.939 391.801 415.528 393.155 416.684 394.889C417.84 396.623 418.418 398.646 418.418 400.957C418.418 403.269 417.822 405.292 416.63 407.026C415.474 408.76 413.849 410.114 411.754 411.089C409.659 412.065 407.184 412.552 404.331 412.552H396.583ZM387.806 427.94V389.363H398.642V427.94H387.806ZM408.611 427.94L398.1 411.469L407.853 409.356L420.91 427.94H408.611Z" stroke="white" stroke-width="0.903022" mask="url(#path-2-outside-1_254_29)"/>
</svg>
